<svg width="40" height="33" viewBox="0 0 40 33" fill="none" xmlns="http://www.w3.org/2000/svg">
<path d="M8.85849 29.5459H7.35849V32.5459H8.85849V31.0459V29.5459ZM0.43934 9.98524C-0.146447 10.571 -0.146447 11.5208 0.43934 12.1066L9.98528 21.6525C10.5711 22.2383 11.5208 22.2383 12.1066 21.6525C12.6924 21.0667 12.6924 20.117 12.1066 19.5312L3.62132 11.0459L12.1066 2.56062C12.6924 1.97483 12.6924 1.02508 12.1066 0.439297C11.5208 -0.146488 10.5711 -0.146488 9.98528 0.439297L0.43934 9.98524ZM35.7392 27.1245L34.5872 26.1637L35.7392 27.1245ZM35.8321 15.3178L34.641 16.2295L35.8321 15.3178ZM30.2868 11.7778L29.9612 13.2421L30.2868 11.7778ZM35.9822 15.5138L34.7911 16.4256L35.9822 15.5138ZM8.85849 31.0459V32.5459H25.3318V31.0459V29.5459H8.85849V31.0459ZM25.4028 11.0459V9.5459H1.5V11.0459L1.5 12.5459H25.4028V11.0459ZM28.619 30.6873L28.9425 32.152L30.9252 31.7142L30.6018 30.2495L30.2784 28.7848L28.2956 29.2226L28.619 30.6873ZM35.9822 15.5138L37.1733 14.6021L37.0232 14.4061L35.8321 15.3178L34.641 16.2295L34.7911 16.4256L35.9822 15.5138ZM30.2868 11.7778L30.6124 10.3136L28.8748 9.92726L28.5493 11.3915L28.2237 12.8557L29.9612 13.2421L30.2868 11.7778ZM30.6018 30.2495L30.9252 31.7142C33.2608 31.1985 35.3591 29.9221 36.8911 28.0852L35.7392 27.1245L34.5872 26.1637C33.4808 27.4904 31.9652 28.4123 30.2784 28.7848L30.6018 30.2495ZM35.8321 15.3178L37.0232 14.4061C35.4343 12.3302 33.1642 10.881 30.6124 10.3136L30.2868 11.7778L29.9612 13.2421C31.824 13.6563 33.4811 14.7141 34.641 16.2295L35.8321 15.3178ZM25.4028 11.0459V12.5459C26.3516 12.5459 27.2975 12.6498 28.2237 12.8557L28.5493 11.3915L28.8748 9.92726C27.7349 9.67378 26.5706 9.5459 25.4028 9.5459V11.0459ZM25.3318 31.0459V32.5459C26.5461 32.5459 27.7568 32.4138 28.9425 32.152L28.619 30.6873L28.2956 29.2226C27.3223 29.4375 26.3286 29.5459 25.3318 29.5459V31.0459ZM35.9822 15.5138L34.7911 16.4256C37.0069 19.3205 36.9223 23.3641 34.5872 26.1637L35.7392 27.1245L36.8911 28.0852C40.1241 24.2089 40.2413 18.6103 37.1733 14.6021L35.9822 15.5138Z" fill="white"/>
</svg>
