<svg width="40" height="40" viewBox="0 0 40 40" fill="none" xmlns="http://www.w3.org/2000/svg">
<path fill-rule="evenodd" clip-rule="evenodd" d="M9.33537 15.8749C8.79491 17.0023 8.98463 18.3208 9.36407 20.9579L9.64284 22.8952C10.1303 26.2827 10.374 27.9764 11.549 28.9882C12.7241 30 14.4474 30 17.8939 30H20.1061C23.5526 30 25.2759 30 26.451 28.9882C27.626 27.9764 27.8697 26.2827 28.3572 22.8952L28.6359 20.9579C29.0154 18.3208 29.2051 17.0023 28.6646 15.8749C28.1242 14.7476 26.9738 14.0623 24.6731 12.6918L23.2882 11.8669C21.199 10.6223 20.1543 10 19 10C17.8457 10 16.801 10.6223 14.7117 11.8669L13.3269 12.6918C11.0262 14.0623 9.87583 14.7476 9.33537 15.8749ZM15.2501 25.9998C15.2501 25.5856 15.5859 25.2498 16.0001 25.2498H22.0001C22.4143 25.2498 22.7501 25.5856 22.7501 25.9998C22.7501 26.414 22.4143 26.7498 22.0001 26.7498H16.0001C15.5859 26.7498 15.2501 26.414 15.2501 25.9998Z" fill="#4272EA"/>
</svg>
