<svg width="41" height="40" viewBox="0 0 41 40" fill="none" xmlns="http://www.w3.org/2000/svg">
<path d="M12.1065 11.6548C11.9255 12.0157 11.8364 12.4609 11.6584 13.3513L11.0604 16.3409C10.6819 18.2339 12.1297 20 14.0602 20C15.6318 20 16.9477 18.8091 17.1041 17.2453L17.1731 16.5551C17.01 18.4038 18.4671 20 20.3284 20C22.2023 20 23.6666 18.382 23.4801 16.5174L23.5531 17.2453C23.7095 18.8091 25.0255 20 26.5971 20C28.5275 20 29.9754 18.2339 29.5968 16.3409L28.9989 13.3513C28.8208 12.4609 28.7318 12.0157 28.5507 11.6548C28.1692 10.8944 27.4828 10.3317 26.6624 10.1067C26.273 10 25.8189 10 24.9109 10H22.8284H15.7463C14.8383 10 14.3843 10 13.9949 10.1067C13.1744 10.3317 12.488 10.8944 12.1065 11.6548Z" fill="#4272EA"/>
<path d="M26.5971 21.5C27.4143 21.5 28.1734 21.2876 28.8286 20.9189V22C28.8286 25.7712 28.8286 27.6568 27.657 28.8284C26.714 29.7715 25.3082 29.9554 22.8286 29.9913V26.5C22.8286 25.5654 22.8286 25.0981 22.6277 24.75C22.496 24.522 22.3066 24.3326 22.0786 24.201C21.7305 24 21.2632 24 20.3286 24C19.394 24 18.9267 24 18.5786 24.201C18.3506 24.3326 18.1612 24.522 18.0296 24.75C17.8286 25.0981 17.8286 25.5654 17.8286 26.5V29.9913C15.349 29.9554 13.9433 29.7715 13.0002 28.8284C11.8286 27.6568 11.8286 25.7712 11.8286 22V20.9189C12.4838 21.2876 13.243 21.5 14.0602 21.5C15.2573 21.5 16.3548 21.0364 17.173 20.2719C18.0003 21.0321 19.1051 21.5 20.3284 21.5C21.5518 21.5 22.6567 21.032 23.4841 20.2717C24.3023 21.0363 25.3999 21.5 26.5971 21.5Z" fill="#4272EA"/>
</svg>
