<svg width="22" height="20" viewBox="0 0 22 20" fill="none" xmlns="http://www.w3.org/2000/svg">
<path fill-rule="evenodd" clip-rule="evenodd" d="M13.7506 0C14.1648 0 14.5006 0.335786 14.5006 0.75V1.75C14.5006 2.7165 13.7171 3.5 12.7506 3.5H11.7506C11.6125 3.5 11.5006 3.61193 11.5006 3.75V4H12.0334C13.3467 3.99999 14.3877 3.99998 15.2275 4.08283C16.09 4.16791 16.8104 4.34536 17.4618 4.74393C17.7699 4.9325 18.0564 5.15357 18.3159 5.40336C18.8662 5.933 19.2108 6.58075 19.4941 7.38414C19.7691 8.16376 20.0066 9.15254 20.305 10.3949L21.3995 14.9515C21.8825 16.9623 20.5943 18.9448 18.5725 19.4039C16.8705 19.7904 15.1049 18.9855 14.324 17.4338L14.196 17.1794C13.7563 16.3059 12.8359 15.7399 11.8142 15.7399H9.68692C8.66521 15.7399 7.74479 16.3059 7.30513 17.1794L7.17713 17.4338C6.39619 18.9855 4.63064 19.7904 2.92861 19.4039C0.906846 18.9448 -0.38143 16.9623 0.101589 14.9515L1.19607 10.395C1.4945 9.15257 1.732 8.16376 2.00699 7.38413C2.29036 6.58075 2.63492 5.933 3.18518 5.40336C3.44469 5.15357 3.73116 4.9325 4.03936 4.74393C4.69075 4.34536 5.41116 4.16791 6.27359 4.08283C7.11342 3.99998 8.15436 3.99999 9.46775 4H10.0006V3.75C10.0006 2.7835 10.7841 2 11.7506 2H12.7506C12.8886 2 13.0006 1.88807 13.0006 1.75V0.75C13.0006 0.335786 13.3363 0 13.7506 0ZM9.5074 5.5C8.14553 5.5 7.17849 5.50085 6.42085 5.57559C5.67739 5.64893 5.20648 5.78831 4.82223 6.02342C4.60623 6.15558 4.40614 6.31011 4.22541 6.48407C3.9059 6.79161 3.66227 7.20069 3.42158 7.88308C3.17547 8.58084 2.9552 9.49385 2.64494 10.7855L1.5601 15.3018C1.28042 16.4662 2.01956 17.6593 3.26078 17.9411C4.31039 18.1795 5.37532 17.6773 5.83725 16.7594L5.96525 16.5051C6.66675 15.1113 8.11432 14.2399 9.68692 14.2399H11.8142C13.3868 14.2399 14.8344 15.1113 15.5359 16.5051L15.6639 16.7594C16.1258 17.6773 17.1907 18.1795 18.2403 17.9411C19.4815 17.6593 20.2207 16.4662 19.941 15.3018L18.8562 10.7855C18.5459 9.49385 18.3256 8.58084 18.0795 7.88308C17.8388 7.20069 17.5952 6.79161 17.2757 6.48407C17.095 6.31011 16.8949 6.15558 16.6789 6.02342C16.2946 5.78831 15.8237 5.64893 15.0803 5.57559C14.3226 5.50085 13.3556 5.5 11.9937 5.5H9.5074ZM7.25055 8C7.66477 8 8.00055 8.33579 8.00055 8.75V9.5H8.75055C9.16477 9.5 9.50055 9.83579 9.50055 10.25C9.50055 10.6642 9.16477 11 8.75055 11H8.00055V11.75C8.00055 12.1642 7.66477 12.5 7.25055 12.5C6.83634 12.5 6.50055 12.1642 6.50055 11.75V11H5.75055C5.33634 11 5.00055 10.6642 5.00055 10.25C5.00055 9.83579 5.33634 9.5 5.75055 9.5H6.50055V8.75C6.50055 8.33579 6.83634 8 7.25055 8Z" fill="#323232"/>
<path d="M14.7506 8.75C14.7506 9.30229 14.3028 9.75 13.7506 9.75C13.1983 9.75 12.7506 9.30229 12.7506 8.75C12.7506 8.19771 13.1983 7.75 13.7506 7.75C14.3028 7.75 14.7506 8.19771 14.7506 8.75Z" fill="#323232"/>
<path d="M16.7506 11.75C16.7506 12.3023 16.3028 12.75 15.7506 12.75C15.1983 12.75 14.7506 12.3023 14.7506 11.75C14.7506 11.1977 15.1983 10.75 15.7506 10.75C16.3028 10.75 16.7506 11.1977 16.7506 11.75Z" fill="#323232"/>
</svg>
