<svg width="40" height="40" viewBox="0 0 40 40" fill="none" xmlns="http://www.w3.org/2000/svg">
<g clip-path="url(#clip0_636_1524)">
<path d="M19.999 0.000244141C8.95902 0.000244141 -0.000976562 8.96025 -0.000976562 20.0002C-0.000976562 31.0402 8.95902 40.0002 19.999 40.0002C31.039 40.0002 39.999 31.0402 39.999 20.0002C39.999 8.96025 31.039 0.000244141 19.999 0.000244141ZM29.279 13.6002C28.979 16.7602 27.679 24.4402 27.019 27.9802C26.739 29.4802 26.179 29.9802 25.659 30.0402C24.499 30.1402 23.619 29.2802 22.499 28.5402C20.739 27.3802 19.739 26.6602 18.039 25.5402C16.059 24.2402 17.339 23.5202 18.479 22.3602C18.779 22.0602 23.899 17.4002 23.999 16.9802C24.0129 16.9166 24.0111 16.8506 23.9936 16.7879C23.9762 16.7251 23.9437 16.6676 23.899 16.6202C23.779 16.5202 23.619 16.5602 23.479 16.5802C23.299 16.6202 20.499 18.4802 15.039 22.1602C14.239 22.7002 13.519 22.9802 12.879 22.9602C12.159 22.9402 10.799 22.5602 9.77902 22.2202C8.51902 21.8202 7.53902 21.6002 7.61902 20.9002C7.65902 20.5402 8.15902 20.1802 9.09902 19.8002C14.939 17.2602 18.819 15.5802 20.759 14.7802C26.319 12.4602 27.459 12.0602 28.219 12.0602C28.379 12.0602 28.759 12.1002 28.999 12.3002C29.199 12.4602 29.259 12.6802 29.279 12.8402C29.259 12.9602 29.299 13.3202 29.279 13.6002Z" fill="#3BCAE3"/>
</g>
<defs>
<clipPath id="clip0_636_1524">
<rect width="40" height="40" fill="white"/>
</clipPath>
</defs>
</svg>
