<svg width="21" height="21" viewBox="0 0 21 21" fill="none" xmlns="http://www.w3.org/2000/svg">
<path d="M10.5 5.63501V8.54876" stroke="white" stroke-width="1.5" stroke-miterlimit="10" stroke-linecap="round"/>
<path d="M10.5183 1.75C7.29827 1.75 4.69077 4.3575 4.69077 7.5775V9.415C4.69077 10.01 4.44577 10.9025 4.13952 11.41L3.02827 13.265C2.34577 14.4112 2.81826 15.6887 4.07826 16.1087C8.26077 17.5 12.7845 17.5 16.967 16.1087C18.1483 15.715 18.6558 14.3325 18.017 13.265L16.9058 11.41C16.5995 10.9025 16.3545 10.0013 16.3545 9.415V7.5775C16.3458 4.375 13.7208 1.75 10.5183 1.75Z" fill="white" stroke="white" stroke-width="1.5" stroke-miterlimit="10" stroke-linecap="round"/>
<path d="M13.4137 16.4675C13.4137 18.0688 12.1012 19.3813 10.5 19.3813C9.70374 19.3813 8.96874 19.0488 8.44374 18.5238C7.91874 17.9988 7.58624 17.2638 7.58624 16.4675" fill="white"/>
<path d="M13.4137 16.4675C13.4137 18.0688 12.1012 19.3813 10.5 19.3813C9.70374 19.3813 8.96874 19.0488 8.44374 18.5238C7.91874 17.9988 7.58624 17.2638 7.58624 16.4675" stroke="white" stroke-width="1.5" stroke-miterlimit="10"/>
</svg>
