<svg width="16" height="16" viewBox="0 0 16 16" fill="none" xmlns="http://www.w3.org/2000/svg">
<path fill-rule="evenodd" clip-rule="evenodd" d="M8.00004 5.50008C6.61933 5.50008 5.50004 6.61937 5.50004 8.00008C5.50004 9.38079 6.61933 10.5001 8.00004 10.5001C9.38075 10.5001 10.5 9.38079 10.5 8.00008C10.5 6.61937 9.38075 5.50008 8.00004 5.50008ZM6.50004 8.00008C6.50004 7.17165 7.17161 6.50008 8.00004 6.50008C8.82847 6.50008 9.50004 7.17165 9.50004 8.00008C9.50004 8.82851 8.82847 9.50008 8.00004 9.50008C7.17161 9.50008 6.50004 8.82851 6.50004 8.00008Z" fill="#1C274C"/>
<path fill-rule="evenodd" clip-rule="evenodd" d="M8.00004 2.16675C4.99062 2.16675 2.96357 3.96955 1.78709 5.49799L1.76587 5.52555C1.4998 5.8711 1.25475 6.18936 1.0885 6.56568C0.91047 6.96866 0.833374 7.40787 0.833374 8.00008C0.833374 8.59229 0.91047 9.0315 1.0885 9.43448C1.25475 9.8108 1.4998 10.1291 1.76587 10.4746L1.78709 10.5022C2.96357 12.0306 4.99062 13.8334 8.00004 13.8334C11.0095 13.8334 13.0365 12.0306 14.213 10.5022L14.2342 10.4746C14.5003 10.1291 14.7453 9.81081 14.9116 9.43448C15.0896 9.0315 15.1667 8.59229 15.1667 8.00008C15.1667 7.40787 15.0896 6.96866 14.9116 6.56568C14.7453 6.18936 14.5003 5.87109 14.2342 5.52553L14.213 5.49799C13.0365 3.96955 11.0095 2.16675 8.00004 2.16675ZM2.57952 6.10795C3.6658 4.69669 5.43361 3.16675 8.00004 3.16675C10.5665 3.16675 12.3343 4.69669 13.4206 6.10795C13.7129 6.48781 13.8842 6.71479 13.9969 6.96978C14.1021 7.20809 14.1667 7.49937 14.1667 8.00008C14.1667 8.50079 14.1021 8.79207 13.9969 9.03038C13.8842 9.28538 13.7129 9.51236 13.4206 9.89222C12.3343 11.3035 10.5665 12.8334 8.00004 12.8334C5.43361 12.8334 3.6658 11.3035 2.57952 9.89222C2.28713 9.51236 2.11586 9.28538 2.00321 9.03038C1.89793 8.79207 1.83337 8.50079 1.83337 8.00008C1.83337 7.49937 1.89793 7.20809 2.00321 6.96978C2.11586 6.71479 2.28713 6.48781 2.57952 6.10795Z" fill="#1C274C"/>
</svg>
