<svg width="16" height="16" viewBox="0 0 16 16" fill="none" xmlns="http://www.w3.org/2000/svg">
<path fill-rule="evenodd" clip-rule="evenodd" d="M14.8636 4.20706C15.1174 4.31584 15.235 4.60978 15.1262 4.86359L14.6667 4.66663C15.1262 4.86359 15.1263 4.86347 15.1262 4.86359L15.1257 4.86471L15.125 4.86637L15.1229 4.87127L15.1158 4.88733C15.1098 4.90075 15.1013 4.91956 15.0902 4.94335C15.068 4.99092 15.0355 5.05846 14.9926 5.14274C14.9067 5.31117 14.7784 5.54709 14.6057 5.82428C14.3219 6.27963 13.915 6.85174 13.3747 7.42008L14.0202 8.06564C14.2155 8.2609 14.2155 8.57748 14.0202 8.77274C13.8249 8.96801 13.5084 8.96801 13.3131 8.77274L12.646 8.10569C12.2063 8.47415 11.7019 8.81999 11.1301 9.10412L11.7524 10.0606C11.903 10.2921 11.8375 10.6018 11.606 10.7524C11.3746 10.903 11.0648 10.8375 10.9142 10.606L10.1881 9.49006C9.66856 9.65974 9.10603 9.77504 8.49999 9.81638V11C8.49999 11.2761 8.27613 11.5 7.99999 11.5C7.72385 11.5 7.49999 11.2761 7.49999 11V9.81638C6.91264 9.77632 6.3661 9.66677 5.85992 9.50557L5.14387 10.606C4.99327 10.8375 4.68355 10.903 4.45209 10.7524C4.22063 10.6018 4.15509 10.2921 4.30569 10.0607L4.91397 9.12581C4.33771 8.8444 3.82925 8.50008 3.38565 8.13214L2.745 8.77279C2.54974 8.96805 2.23316 8.96805 2.0379 8.77279C1.84263 8.57753 1.84263 8.26095 2.0379 8.06568L2.65374 7.44984C2.10403 6.87671 1.69021 6.29767 1.40189 5.83641C1.2266 5.55599 1.09644 5.31706 1.0093 5.14643C0.965695 5.06105 0.932776 4.9926 0.910288 4.94439C0.899041 4.92028 0.890394 4.90122 0.884317 4.88762L0.877121 4.87136L0.87496 4.8664L0.874236 4.86472L0.873964 4.86409C0.873913 4.86397 0.873751 4.86359 1.33332 4.66663L0.873964 4.86409C0.765186 4.61027 0.882549 4.31584 1.13636 4.20706C1.38997 4.09837 1.68363 4.21566 1.79263 4.46905C1.79266 4.46913 1.79259 4.46896 1.79263 4.46905L1.79326 4.47051L1.79731 4.47965C1.80124 4.48845 1.80764 4.50257 1.81652 4.52162C1.8343 4.55972 1.86202 4.61747 1.89988 4.69161C1.97568 4.84003 2.09178 5.05348 2.24986 5.30637C2.56693 5.81362 3.04775 6.47136 3.70378 7.08103C4.28105 7.6175 4.98843 8.11167 5.83447 8.43717C6.4708 8.68199 7.19029 8.8333 7.99999 8.8333C8.8278 8.8333 9.56141 8.67514 10.2083 8.42051C11.0492 8.08952 11.7518 7.59213 12.3245 7.05463C12.9708 6.44794 13.4446 5.79674 13.7569 5.29543C13.9127 5.0455 14.0271 4.83481 14.1017 4.68841C14.139 4.61527 14.1663 4.55834 14.1838 4.5208C14.1926 4.50203 14.1989 4.48812 14.2028 4.47946L14.2067 4.47047L14.2071 4.46967C14.2071 4.46961 14.2071 4.46974 14.2071 4.46967M14.8636 4.20706C14.6099 4.09831 14.3159 4.21599 14.2071 4.46967ZM1.79263 4.46905C1.79266 4.46913 1.79259 4.46896 1.79263 4.46905Z" fill="#1C274C"/>
</svg>
