<svg width="40" height="40" viewBox="0 0 40 40" fill="none" xmlns="http://www.w3.org/2000/svg">
<path d="M25.2929 10.2929C25 10.5858 25 11.0572 25 12V25C25 25.9428 25 26.4142 25.2929 26.7071C25.5858 27 26.0572 27 27 27C27.9428 27 28.4142 27 28.7071 26.7071C29 26.4142 29 25.9428 29 25V12C29 11.0572 29 10.5858 28.7071 10.2929C28.4142 10 27.9428 10 27 10C26.0572 10 25.5858 10 25.2929 10.2929Z" fill="#4272EA"/>
<path d="M18 15C18 14.0572 18 13.5858 18.2929 13.2929C18.5858 13 19.0572 13 20 13C20.9428 13 21.4142 13 21.7071 13.2929C22 13.5858 22 14.0572 22 15V25C22 25.9428 22 26.4142 21.7071 26.7071C21.4142 27 20.9428 27 20 27C19.0572 27 18.5858 27 18.2929 26.7071C18 26.4142 18 25.9428 18 25V15Z" fill="#4272EA"/>
<path d="M11.2929 17.2929C11 17.5858 11 18.0572 11 19V25C11 25.9428 11 26.4142 11.2929 26.7071C11.5858 27 12.0572 27 13 27C13.9428 27 14.4142 27 14.7071 26.7071C15 26.4142 15 25.9428 15 25V19C15 18.0572 15 17.5858 14.7071 17.2929C14.4142 17 13.9428 17 13 17C12.0572 17 11.5858 17 11.2929 17.2929Z" fill="#4272EA"/>
<path d="M11 29.25C10.5858 29.25 10.25 29.5858 10.25 30C10.25 30.4142 10.5858 30.75 11 30.75H29C29.4142 30.75 29.75 30.4142 29.75 30C29.75 29.5858 29.4142 29.25 29 29.25H11Z" fill="#4272EA"/>
</svg>
