<svg width="41" height="40" viewBox="0 0 41 40" fill="none" xmlns="http://www.w3.org/2000/svg">
<path fill-rule="evenodd" clip-rule="evenodd" d="M10.5 9.25C10.0858 9.25 9.75 9.58579 9.75 10C9.75 10.4142 10.0858 10.75 10.5 10.75H12.5V20.2774C12.5 21.6175 12.5 22.2875 12.7681 22.8783C13.0362 23.4692 13.5405 23.9104 14.549 24.7928L16.549 26.5429C18.4315 28.1901 19.3728 29.0137 20.5 29.0137C21.6272 29.0137 22.5685 28.1901 24.451 26.5429L26.451 24.7929C27.4595 23.9104 27.9638 23.4692 28.2319 22.8783C28.5 22.2875 28.5 21.6175 28.5 20.2774V10.75H30.5C30.9142 10.75 31.25 10.4142 31.25 10C31.25 9.58579 30.9142 9.25 30.5 9.25H10.5ZM17 20.25C16.5858 20.25 16.25 20.5858 16.25 21C16.25 21.4142 16.5858 21.75 17 21.75H24C24.4142 21.75 24.75 21.4142 24.75 21C24.75 20.5858 24.4142 20.25 24 20.25H17ZM16.25 16C16.25 15.5858 16.5858 15.25 17 15.25H24C24.4142 15.25 24.75 15.5858 24.75 16C24.75 16.4142 24.4142 16.75 24 16.75H17C16.5858 16.75 16.25 16.4142 16.25 16Z" fill="#4272EA"/>
</svg>
